# xmcd
#
# Track frame offsets: 
#        150
#        11645
#        22883
#        34508
#        46750
#        57740
#        68658
#        80508
#        91173
#        101385
#        121150
#        131472
#        156125
#        167036
#        178036
#        188863
#        198565
#        207590
#        219052
#        232187
#        243042
#        254825
#        263949
#        272729
#        284906
#        296771
#        306617
#
# Disc length: 4297 seconds
#
# Revision: 0
# Processed by: cddbd v1.5.2PL0 Copyright (c) Steve Scherf et al.
# Submitted via: ExactAudioCopy v0.95b4
#
DISCID=9110c71b
DTITLE=Various Artist - Billboard 1963
DYEAR=2000
DGENRE=Other
TTITLE0=The Beatles - Twist and Shout
TTITLE1=The Beach Boys - Surfin' U.S.A.
TTITLE2=Paul Anka - Put Your Head on My Shoulder
TTITLE3=Al Martino - Love is Blue
TTITLE4=Little Richard - Lucille
TTITLE5=Frankie Valli and The Four Seasons - Big Girls Don't Cry
TTITLE6=The Platters - Only You
TTITLE7=The Beatles - She Loves You
TTITLE8=Gary Lewis and the Playboys - This Diamond Ring
TTITLE9=Frank Sinatra - Old Man River
TTITLE10=Elvis Presley - Devil in Disguise
TTITLE11=Morris Albert - Feeling
TTITLE12=Bobby Darin - You're the Reason
TTITLE13=The Beatles - I Want to Hold Your Hand
TTITLE14=The Hollies - Searchin'
TTITLE15=The Ventures - The Ninth Wave
TTITLE16=Little Richard - Jenny
TTITLE17=Ricky Nelson - Poor Little Fool
TTITLE18=Lynn Anderson - Rose Garden
TTITLE19=Neil Diamond - I'm a Believer
TTITLE20=Elvis Presley - I Want You, I Need You, I Love You
TTITLE21=Box Tops - The Letter
TTITLE22=Eddie Cochran - C'mon Everybody
TTITLE23=Gary Puckett and The Union Gap - Lady Willpower
TTITLE24=Bobby Day - Rockin' Robin
TTITLE25=Carl Perkins - Matchbox
TTITLE26=Mungo Jerry - In the Summertime
EXTD=
EXTT0=
EXTT1=
EXTT2=
EXTT3=
EXTT4=
EXTT5=
EXTT6=
EXTT7=
EXTT8=
EXTT9=
EXTT10=
EXTT11=
EXTT12=
EXTT13=
EXTT14=
EXTT15=
EXTT16=
EXTT17=
EXTT18=
EXTT19=
EXTT20=
EXTT21=
EXTT22=
EXTT23=
EXTT24=
EXTT25=
EXTT26=
PLAYORDER=
